# xmcd
#
# Track frame offsets:
#	182
#	10387
#	19402
#	31320
#	41475
#	51095
#	61625
#	73675
#	85232
#	97880
#
# Disc length: 1435
#
# Revision: 1
# Processed by: cddbd v1.5.1PL0 Copyright (c) Steve Scherf et al.
# Submitted via: dBpowerAMP V4.0
# Normalized: r0:TDELIM( - )
#
DISCID=7705990a
DTITLE=Various Artist - Country Christmas SE
DYEAR=1996
DGENRE=Country
TTITLE0=Alan Jackson - A Holly Holly Christmas
TTITLE1=George Jones and Tammy Wynette - Mr. and Mrs. Santa Clause
TTITLE2=Emmylou Harris - Away in a Manger
TTITLE3=Buck Owens - Santa Looked a Lot Like Daddy
TTITLE4=Loretta Lynn - Country Christmas
TTITLE5=Red Simpson - Truckin' Trees For Christmas
TTITLE6=Tammy Wynette - White Christmas
TTITLE7=Johnny Cash - The Little Drummer Boy
TTITLE8=Jim Reeves - An Old Christmas Card
TTITLE9=Michael Martin Murphy - Merry Texas Christmas You All
EXTD=Country Christmas Special Editions
EXTT0=
EXTT1=
EXTT2=
EXTT3=
EXTT4=
EXTT5=
EXTT6=
EXTT7=
EXTT8=
EXTT9=
PLAYORDER=
